<svg width="146px" height="126px" viewBox="0 0 146 126" version="1.1" xmlns="http://www.w3.org/2000/svg" xmlns:xlink="http://www.w3.org/1999/xlink">
        <g id="Group">
            <path d="M91.251,86.464 C91.251,87.877 90.734,89.1 89.703,90.131 C88.671,91.163 87.448,91.679 86.036,91.679 L59.965,91.679 C58.552,91.679 57.33,91.163 56.298,90.131 C55.266,89.1 54.75,87.877 54.75,86.464 L54.75,73.429 L0,73.429 L0,112.536 C0,116.12 1.276,119.189 3.829,121.742 C6.382,124.295 9.451,125.571 13.036,125.571 L132.965,125.571 C136.549,125.571 139.618,124.295 142.171,121.742 C144.725,119.189 146,116.12 146,112.536 L146,73.429 L91.251,73.429 L91.251,86.464 L91.251,86.464 Z" id="Shape"></path>
            <rect id="Rectangle-path" x="63" y="73" width="20.859" height="10.429"></rect>
            <path d="M142.171,25.115 C139.618,22.562 136.549,21.286 132.965,21.286 L104.285,21.286 L104.285,8.25 C104.285,6.077 103.525,4.231 102.004,2.71 C100.484,1.19 98.637,0.429 96.465,0.429 L49.536,0.429 C47.364,0.429 45.517,1.19 43.996,2.71 C42.475,4.23 41.715,6.077 41.715,8.25 L41.715,21.286 L13.036,21.286 C9.451,21.286 6.382,22.562 3.829,25.115 C1.276,27.668 0,30.736 0,34.321 L0,65.607 L146,65.607 L146,34.321 C146,30.736 144.725,27.668 142.171,25.115 L142.171,25.115 Z M93.857,21.286 L52.143,21.286 L52.143,10.857 L93.857,10.857 L93.857,21.286 L93.857,21.286 Z" id="Shape"></path>
        </g>
</svg>