<svg width="136px" height="114px" viewBox="0 0 136 114" version="1.1" xmlns="http://www.w3.org/2000/svg" xmlns:xlink="http://www.w3.org/1999/xlink">
    <g id="Group">
        <path d="M52.357,-0.358 L10.643,-0.358 C7.818,-0.358 5.374,0.675 3.31,2.739 C1.246,4.801 0.214,7.247 0.214,10.071 L0.214,41.357 C0.214,44.181 1.246,46.626 3.31,48.689 C5.374,50.754 7.818,51.786 10.643,51.786 L52.357,51.786 C55.182,51.786 57.626,50.753 59.69,48.689 C61.754,46.626 62.786,44.181 62.786,41.357 L62.786,10.071 C62.786,7.247 61.754,4.802 59.69,2.739 C57.626,0.674 55.181,-0.358 52.357,-0.358 L52.357,-0.358 Z" id="Shape"></path>
        <path d="M52.357,62.214 L10.643,62.214 C7.818,62.214 5.374,63.247 3.31,65.311 C1.246,67.375 0.214,69.819 0.214,72.643 L0.214,103.929 C0.214,106.753 1.246,109.199 3.31,111.261 C5.374,113.326 7.818,114.358 10.643,114.358 L52.357,114.358 C55.182,114.358 57.626,113.326 59.69,111.261 C61.754,109.199 62.786,106.753 62.786,103.929 L62.786,72.643 C62.786,69.819 61.754,67.374 59.69,65.311 C57.626,63.246 55.181,62.214 52.357,62.214 L52.357,62.214 Z" id="Shape"></path>
        <path d="M132.689,2.739 C130.627,0.674 128.181,-0.358 125.357,-0.358 L83.642,-0.358 C80.818,-0.358 78.373,0.675 76.31,2.739 C74.245,4.801 73.213,7.247 73.213,10.071 L73.213,41.357 C73.213,44.181 74.245,46.626 76.31,48.689 C78.373,50.754 80.818,51.786 83.642,51.786 L125.357,51.786 C128.181,51.786 130.627,50.753 132.689,48.689 C134.753,46.626 135.785,44.181 135.785,41.357 L135.785,10.071 C135.785,7.247 134.754,4.803 132.689,2.739 L132.689,2.739 Z" id="Shape"></path>
        <path d="M125.357,62.214 L83.642,62.214 C80.818,62.214 78.373,63.247 76.31,65.311 C74.245,67.374 73.213,69.819 73.213,72.643 L73.213,103.929 C73.213,106.753 74.245,109.199 76.31,111.261 C78.373,113.326 80.818,114.358 83.642,114.358 L125.357,114.358 C128.181,114.358 130.627,113.326 132.689,111.261 C134.753,109.199 135.785,106.753 135.785,103.929 L135.785,72.643 C135.785,69.819 134.754,67.374 132.689,65.311 C130.627,63.246 128.182,62.214 125.357,62.214 L125.357,62.214 Z" id="Shape"></path>
    </g>
</svg>