<svg width="156px" height="144px" viewBox="0 0 156 144" version="1.1" xmlns="http://www.w3.org/2000/svg" xmlns:xlink="http://www.w3.org/1999/xlink">
    <g id="Group" transform="translate(-1.000000, 0.000000)">
        <path d="M95.865,101.207 C95.865,100.664 95.675,100.121 95.295,99.578 C92.253,95.937 89.809,92.814 87.962,90.208 C89.102,87.982 89.971,85.918 90.568,84.018 L103.197,82.063 C103.687,82.008 104.121,81.723 104.501,81.208 C104.881,80.69 105.07,80.162 105.07,79.619 L105.07,64.545 C105.07,63.948 104.881,63.418 104.501,62.957 C104.121,62.496 103.659,62.21 103.116,62.103 L90.732,60.229 C90.133,58.382 89.21,56.154 87.961,53.548 C88.775,52.352 89.998,50.722 91.628,48.659 C93.257,46.595 94.399,45.129 95.05,44.26 C95.43,43.717 95.62,43.2 95.62,42.712 C95.62,41.245 91.709,36.9 83.889,29.676 C83.346,29.242 82.776,29.025 82.177,29.025 C81.526,29.025 80.983,29.213 80.547,29.595 L70.933,36.846 C68.707,35.706 66.67,34.864 64.823,34.32 L62.949,21.855 C62.896,21.312 62.624,20.836 62.135,20.429 C61.646,20.022 61.103,19.818 60.505,19.818 L45.352,19.818 C44.103,19.818 43.288,20.47 42.908,21.773 C42.256,24.272 41.632,28.455 41.034,34.32 C38.699,35.08 36.608,35.949 34.761,36.927 L25.392,29.595 C24.849,29.214 24.279,29.025 23.681,29.025 C22.648,29.025 20.503,30.627 17.244,33.832 C13.985,37.036 11.757,39.453 10.563,41.083 C10.182,41.518 9.993,42.061 9.993,42.713 C9.993,43.201 10.182,43.744 10.563,44.342 C13.604,47.982 16.048,51.105 17.895,53.711 C16.755,55.939 15.886,58.002 15.289,59.903 L2.66,61.857 C2.171,61.911 1.737,62.196 1.356,62.711 C0.976,63.228 0.786,63.757 0.786,64.3 L0.786,79.372 C0.786,79.97 0.976,80.5 1.356,80.961 C1.737,81.423 2.198,81.681 2.742,81.735 L15.126,83.69 C15.778,85.754 16.729,87.981 17.978,90.371 C17.109,91.567 15.833,93.224 14.149,95.341 C12.464,97.46 11.351,98.9 10.808,99.659 C10.428,100.202 10.238,100.72 10.238,101.207 C10.238,102.675 14.149,107.019 21.97,114.243 C22.513,114.677 23.083,114.893 23.681,114.893 C24.387,114.893 24.93,114.705 25.31,114.324 L34.924,107.073 C37.15,108.214 39.187,109.055 41.034,109.598 L42.908,122.064 C42.962,122.607 43.234,123.083 43.722,123.49 C44.211,123.897 44.754,124.1 45.352,124.1 L60.505,124.1 C61.755,124.1 62.569,123.449 62.949,122.145 C63.601,119.591 64.225,115.382 64.823,109.516 C66.995,108.866 69.086,108.022 71.096,106.992 L80.466,114.324 C81.009,114.705 81.579,114.893 82.177,114.893 C83.209,114.893 85.342,113.278 88.573,110.045 C91.804,106.815 94.045,104.383 95.295,102.753 C95.675,102.375 95.865,101.859 95.865,101.207 L95.865,101.207 Z M67.675,86.706 C63.602,90.779 58.686,92.816 52.929,92.816 C47.171,92.816 42.255,90.779 38.182,86.706 C34.109,82.633 32.072,77.717 32.072,71.959 C32.072,66.202 34.109,61.286 38.182,57.213 C42.255,53.139 47.171,51.103 52.929,51.103 C58.686,51.103 63.602,53.139 67.675,57.213 C71.749,61.286 73.785,66.202 73.785,71.959 C73.785,77.717 71.749,82.633 67.675,86.706 L67.675,86.706 Z" id="Shape"></path>
        <path d="M145.074,105.445 C144.369,103.87 143.554,102.458 142.631,101.208 C145.401,95.07 146.785,91.322 146.785,89.965 C146.785,89.749 146.678,89.558 146.46,89.395 C139.941,85.593 136.574,83.692 136.357,83.692 L135.868,83.856 C133.642,86.083 131.142,89.125 128.373,92.981 C127.287,92.873 126.473,92.817 125.93,92.817 C125.385,92.817 124.572,92.873 123.485,92.981 C122.727,91.839 121.313,90.006 119.25,87.481 C117.187,84.956 115.937,83.692 115.502,83.692 C115.394,83.692 114.579,84.127 113.058,84.997 C111.537,85.866 109.935,86.789 108.251,87.768 C106.565,88.747 105.617,89.289 105.399,89.398 C105.18,89.56 105.073,89.751 105.073,89.967 C105.073,91.325 106.458,95.071 109.227,101.21 C108.305,102.46 107.49,103.872 106.784,105.446 C98.69,106.26 94.643,107.102 94.643,107.971 L94.643,119.377 C94.643,120.246 98.69,121.088 106.784,121.902 C107.434,123.368 108.25,124.781 109.227,126.137 C106.458,132.275 105.073,136.023 105.073,137.381 C105.073,137.597 105.18,137.788 105.399,137.951 C112.024,141.807 115.393,143.735 115.502,143.735 C115.937,143.735 117.187,142.459 119.25,139.906 C121.313,137.352 122.726,135.507 123.485,134.366 C124.571,134.473 125.385,134.528 125.93,134.528 C126.473,134.528 127.287,134.473 128.373,134.366 C129.132,135.507 130.545,137.352 132.609,139.906 C134.672,142.459 135.921,143.735 136.357,143.735 C136.465,143.735 139.834,141.806 146.46,137.951 C146.678,137.788 146.785,137.598 146.785,137.381 C146.785,136.023 145.4,132.275 142.631,126.137 C143.608,124.781 144.423,123.368 145.074,121.902 C153.168,121.088 157.215,120.246 157.215,119.377 L157.215,107.971 C157.215,107.102 153.168,106.26 145.074,105.445 L145.074,105.445 Z M133.301,121.047 C131.266,123.084 128.807,124.104 125.928,124.104 C123.049,124.104 120.591,123.084 118.555,121.047 C116.518,119.01 115.499,116.553 115.499,113.674 C115.499,110.85 116.532,108.404 118.596,106.341 C120.66,104.278 123.104,103.245 125.928,103.245 C128.752,103.245 131.198,104.277 133.262,106.341 C135.325,108.404 136.358,110.85 136.358,113.674 C136.357,116.553 135.339,119.01 133.301,121.047 L133.301,121.047 Z" id="Shape"></path>
        <path d="M145.074,22.016 C144.369,20.441 143.554,19.029 142.631,17.779 C145.401,11.642 146.785,7.894 146.785,6.536 C146.785,6.32 146.678,6.129 146.46,5.966 C139.941,2.164 136.574,0.263 136.357,0.263 L135.868,0.426 C133.642,2.654 131.142,5.695 128.373,9.551 C127.287,9.443 126.473,9.388 125.93,9.388 C125.385,9.388 124.572,9.443 123.485,9.551 C122.727,8.41 121.313,6.577 119.25,4.052 C117.187,1.526 115.937,0.263 115.502,0.263 C115.394,0.263 114.579,0.697 113.058,1.567 C111.537,2.437 109.935,3.36 108.251,4.338 C106.565,5.316 105.617,5.859 105.399,5.967 C105.18,6.13 105.073,6.32 105.073,6.537 C105.073,7.895 106.458,11.643 109.227,17.78 C108.305,19.03 107.49,20.442 106.784,22.017 C98.69,22.831 94.643,23.673 94.643,24.542 L94.643,35.948 C94.643,36.817 98.69,37.659 106.784,38.473 C107.434,39.939 108.25,41.352 109.227,42.71 C106.458,48.848 105.073,52.595 105.073,53.953 C105.073,54.169 105.18,54.36 105.399,54.523 C112.024,58.379 115.393,60.307 115.502,60.307 C115.937,60.307 117.187,59.031 119.25,56.478 C121.313,53.925 122.726,52.079 123.485,50.938 C124.571,51.046 125.385,51.101 125.93,51.101 C126.473,51.101 127.287,51.046 128.373,50.938 C129.132,52.079 130.545,53.925 132.609,56.478 C134.672,59.031 135.921,60.307 136.357,60.307 C136.465,60.307 139.834,58.379 146.46,54.523 C146.678,54.36 146.785,54.17 146.785,53.953 C146.785,52.595 145.4,48.848 142.631,42.71 C143.608,41.352 144.423,39.94 145.074,38.473 C153.168,37.659 157.215,36.817 157.215,35.948 L157.215,24.542 C157.215,23.673 153.168,22.831 145.074,22.016 L145.074,22.016 Z M133.301,37.618 C131.266,39.655 128.807,40.674 125.928,40.674 C123.049,40.674 120.591,39.655 118.555,37.618 C116.518,35.582 115.499,33.124 115.499,30.245 C115.499,27.421 116.532,24.976 118.596,22.912 C120.66,20.848 123.104,19.816 125.928,19.816 C128.752,19.816 131.198,20.849 133.262,22.912 C135.325,24.976 136.358,27.421 136.358,30.245 C136.357,33.124 135.339,35.582 133.301,37.618 L133.301,37.618 Z" id="Shape"></path>
    </g>
</svg>