<svg width="146px" height="114px" viewBox="0 0 146 114" version="1.1" xmlns="http://www.w3.org/2000/svg" xmlns:xlink="http://www.w3.org/1999/xlink">
        <g id="Group">
            <path d="M140.785,83.071 L5.214,83.071 C3.801,83.071 2.579,83.588 1.547,84.619 C0.515,85.65 -0.001,86.874 -0.001,88.286 L-0.001,109.142 C-0.001,110.553 0.515,111.777 1.547,112.808 C2.58,113.839 3.802,114.357 5.214,114.357 L140.785,114.357 C142.197,114.357 143.42,113.839 144.452,112.808 C145.484,111.777 146,110.553 146,109.142 L146,88.286 C146,86.874 145.484,85.65 144.452,84.619 C143.42,83.588 142.197,83.071 140.785,83.071 L140.785,83.071 Z M135.572,103.929 L83.43,103.929 L83.43,93.5 L135.573,93.5 L135.573,103.929 L135.572,103.929 Z" id="Shape"></path>
            <path d="M140.785,41.357 L5.214,41.357 C3.801,41.357 2.579,41.873 1.547,42.905 C0.515,43.937 -0.001,45.159 -0.001,46.571 L-0.001,67.427 C-0.001,68.839 0.515,70.062 1.547,71.093 C2.58,72.125 3.802,72.642 5.214,72.642 L140.785,72.642 C142.197,72.642 143.42,72.125 144.452,71.093 C145.484,70.062 146,68.839 146,67.427 L146,46.571 C146,45.159 145.484,43.937 144.452,42.905 C143.42,41.873 142.197,41.357 140.785,41.357 L140.785,41.357 Z M135.57,62.214 L52.143,62.214 L52.143,51.786 L135.57,51.786 L135.57,62.214 L135.57,62.214 Z" id="Shape"></path>
            <path d="M144.452,1.19 C143.42,0.159 142.197,-0.358 140.785,-0.358 L5.214,-0.358 C3.801,-0.358 2.579,0.159 1.547,1.19 C0.515,2.222 -0.001,3.445 -0.001,4.857 L-0.001,25.713 C-0.001,27.126 0.515,28.348 1.547,29.38 C2.58,30.412 3.802,30.928 5.214,30.928 L140.785,30.928 C142.197,30.928 143.42,30.412 144.452,29.38 C145.484,28.348 146,27.126 146,25.713 L146,4.857 C146,3.445 145.484,2.223 144.452,1.19 L144.452,1.19 Z M135.57,20.5 L104.285,20.5 L104.285,10.071 L135.57,10.071 L135.57,20.5 L135.57,20.5 Z" id="Shape"></path>
        </g>
</svg>